<svg width="862" height="155" viewBox="0 0 862 155" fill="none" xmlns="http://www.w3.org/2000/svg">
<rect x="785" y="82.6666" width="13.2" height="13.64" fill="#6191BC"/>
<rect x="801.8" y="82.6666" width="13.2" height="13.64" fill="#6191BC"/>
<rect x="801.8" y="100.027" width="13.2" height="13.64" fill="#6191BC"/>
<rect x="785" y="100.027" width="13.2" height="13.64" fill="#6191BC"/>
<path fill-rule="evenodd" clip-rule="evenodd" d="M805.712 10.2183C803.918 6.36556 798.44 6.36556 796.646 10.2183L750.363 109.623C748.82 112.937 751.239 116.733 754.896 116.733H765.015C764.965 116.518 764.985 116.283 765.096 116.061L800.284 45.6723C800.653 44.9352 801.705 44.9352 802.073 45.6723L837.261 116.061C837.372 116.283 837.392 116.518 837.342 116.733H847.462C851.118 116.733 853.538 112.937 851.995 109.623L805.712 10.2183Z" fill="#3F4659"/>
<rect x="566" y="82.6666" width="13.2" height="13.64" fill="#6191BC"/>
<rect x="582.8" y="82.6666" width="13.2" height="13.64" fill="#6191BC"/>
<rect x="582.8" y="100.027" width="13.2" height="13.64" fill="#6191BC"/>
<rect x="566" y="100.027" width="13.2" height="13.64" fill="#6191BC"/>
<path fill-rule="evenodd" clip-rule="evenodd" d="M586.712 10.2183C584.918 6.36556 579.44 6.36556 577.646 10.2183L531.363 109.623C529.82 112.937 532.239 116.733 535.896 116.733H546.015C545.965 116.518 545.985 116.283 546.096 116.061L581.284 45.6723C581.653 44.9352 582.705 44.9352 583.073 45.6723L618.261 116.061C618.372 116.283 618.392 116.518 618.342 116.733H628.462C632.118 116.733 634.538 112.937 632.995 109.623L586.712 10.2183Z" fill="#3F4659"/>
<path d="M659.477 17.7144C663.489 13.2536 669.763 9.66419 675.611 8.48472C676.717 8.26155 687.601 8.05452 699.799 8.02422C724.815 7.96161 723.422 7.7329 723.263 11.8762C723.149 14.8385 720.897 19.2302 718.344 21.4689C715.674 23.8112 711.074 25.8823 706.98 26.5867C705.161 26.8992 698.602 27.1607 692.406 27.1673C686.209 27.1739 680.265 27.3834 679.195 27.6323C676.745 28.2034 673.933 30.4548 672.479 33.0096C670.356 36.7379 671.376 41.8137 674.922 45.1678C677.927 48.0109 679.415 48.2937 692.698 48.5481C702.982 48.745 705.278 48.9334 708.278 49.825C714.571 51.6957 718.881 54.2607 723.644 58.971C727.324 62.6098 728.347 64.0064 730.316 68.0714C734.598 76.9144 735.156 86.1951 731.944 95.089C728.552 104.476 720.836 112.041 711.027 115.597C707.798 116.768 707.591 116.777 681.454 116.924C651.029 117.094 652.99 117.404 653.345 112.486C653.618 108.698 656.029 105.005 659.957 102.358C665.195 98.8274 665.915 98.7183 686.165 98.3891L704.257 98.0947L706.937 96.6033C709.868 94.9719 711.508 93.2618 713.196 90.0748C714.08 88.4051 714.296 87.1529 714.295 83.7049C714.294 80.0377 714.1 79.041 712.959 76.8568C711.364 73.8057 708.532 71.1216 704.904 69.2221C702.271 67.8437 702.133 67.8281 689.432 67.4898C673.759 67.0717 671.114 66.4623 664.548 61.7545C657.665 56.82 653.741 50.3406 652.267 41.4739C651.03 34.032 654.202 23.5809 659.477 17.7144Z" fill="#3F4659"/>
<path d="M457.292 11.0566C461.819 9.43056 465.56 8.68956 471.5 8.24256C474.112 8.04555 477.15 7.94904 478.249 8.02704C479.349 8.10554 481.824 8.28603 483.749 8.42853C489.016 8.81803 495.157 10.5411 500.912 13.2441C507.189 16.1921 511.226 19.0201 515.437 23.4182C518.525 26.6427 518.616 26.8137 518.348 28.8502C518.12 30.5842 517.605 31.3852 515.411 33.4153C512.033 36.5398 508.641 38.7033 507.118 38.7033C505.609 38.7033 504.429 38.0703 500.911 35.3758C497.012 32.3888 491.476 29.5107 486.999 28.1432C483.931 27.2057 482.068 26.9947 476.75 26.9812C469.412 26.9632 466.135 27.6752 460.278 30.5618C455.946 32.6968 454.501 33.7073 450.809 37.1843C443.347 44.2104 439.527 52.7179 439.508 62.3505C439.497 67.9396 440.546 72.2831 443.275 77.9536C446.947 85.5857 452.395 91.1278 459.75 94.7138C465.348 97.4433 469.568 98.3528 476.5 98.3238C486.267 98.2833 493.917 95.5478 501.141 89.5118C505.399 85.9542 506.421 85.4502 508.373 85.9402C510.311 86.4267 514.811 89.5637 516.487 91.5973C519.509 95.2633 518.859 97.8498 513.702 102.674C499.175 116.263 477.767 120.664 457.85 114.155C435.539 106.864 421 86.4652 421 62.4535C421 39.1153 435.213 18.9861 457.292 11.0566Z" fill="#3F4659"/>
<path fill-rule="evenodd" clip-rule="evenodd" d="M21.4407 8.13321L1.84225 8.4002L0.883723 9.56039C-0.0508898 10.6918 -0.0718154 12.0335 0.0562205 62.9275L0.187246 115.134L1.36348 116.067C2.39325 116.884 3.38665 117 9.34804 117C14.7041 117 16.393 116.838 17.2639 116.24C18.3713 115.481 18.3713 115.48 18.3713 98.9051V82.3296L45.0247 82.5897L47.4146 86.9825C48.7293 89.3986 52.5061 96.5369 55.8076 102.845C59.1087 109.154 62.3788 114.825 63.0743 115.446C64.3014 116.544 64.5679 116.573 72.1923 116.423C79.0818 116.287 80.1743 116.154 81.093 115.338C81.6943 114.804 82.1402 113.811 82.1402 113.004C82.1402 111.828 74.058 95.632 67.5949 83.8558C66.7983 82.4047 65.8363 80.4905 65.4572 79.6016L64.7682 77.9856L68.1758 75.7662C79.4056 68.4522 85.5503 54.8546 83.6622 41.497C81.779 28.1717 74.0625 17.6256 61.786 11.5972C54.5796 8.05854 50.7883 7.73298 21.4407 8.13321ZM46.9621 26.6967C53.9104 27.5596 59.7274 31.7543 62.9816 38.2473C64.2674 40.8132 64.4124 41.5966 64.4124 45.983C64.4124 50.3422 64.2629 51.1617 63.0164 53.6465C61.482 56.7054 57.9543 60.2391 54.9223 61.7547C51.3607 63.5347 47.7498 63.8525 32.8189 63.6997L18.6203 63.5542L18.4898 45.2836C18.3996 32.7075 18.5252 26.9119 18.8919 26.6899C19.7557 26.1666 42.7404 26.1725 46.9621 26.6967Z" fill="#6191BC"/>
<path fill-rule="evenodd" clip-rule="evenodd" d="M214 62.4678C214 10.6242 214.013 9.95426 215 8.97997C215.973 8.02049 216.662 7.99337 240.133 8.00077C265.879 8.00866 267.946 8.16899 272.658 10.5235C275.303 11.8451 278.219 14.0896 280.505 16.5626C289.703 26.5136 289.932 42.9264 281.007 52.5582C279.639 54.0347 278.528 55.4333 278.539 55.6666C278.549 55.8999 279.556 56.815 280.776 57.6995C285.898 61.4151 290.624 68.8058 292.262 75.6594C293.329 80.1208 293.226 87.8174 292.039 92.3238C289.447 102.169 282.845 109.806 273.191 114.125C267.331 116.748 264.626 116.978 239.45 116.997C217.113 117.014 216.608 116.993 215.318 115.992L214 114.97V62.4678ZM272.881 75.9435C271.051 71.9803 267.281 68.5222 263.371 67.2198C260.585 66.2919 259.132 66.2036 246.663 66.2036H233.006V98.2686H247.991C265.033 98.2686 266.669 97.9859 270.109 94.4484C273.352 91.1142 274.219 88.7917 274.205 83.4694C274.195 79.4785 273.999 78.3617 272.881 75.9435ZM264.092 27.8416C265.82 28.8435 266.753 29.8533 267.718 31.7619C269.857 35.9955 269.172 39.9227 265.697 43.3556C262.376 46.6356 260.55 46.9646 245.669 46.9646H233.006V26.19L261.764 26.4924L264.092 27.8416Z" fill="#6191BC"/>
<path fill-rule="evenodd" clip-rule="evenodd" d="M134 38C120.193 38 109 49.1929 109 63V92C109 105.807 120.193 117 134 117H163C176.807 117 188 105.807 188 92V63C188 49.1929 176.807 38 163 38H134ZM133.217 52.0294C127.694 52.0294 123.217 56.5066 123.217 62.0294V91C123.217 96.5228 127.694 101 133.217 101H162.783C168.305 101 172.783 96.5228 172.783 91V62.0294C172.783 56.5066 168.305 52.0294 162.782 52.0294H133.217Z" fill="#6191BC"/>
<ellipse cx="134.891" cy="14.2647" rx="4.8913" ry="4.26471" fill="#3F4659"/>
<line y1="-2.5" x2="25.5965" y2="-2.5" transform="matrix(0 -1 0.999981 0.00610868 137.5 38.5966)" stroke="#3F4659" stroke-width="5"/>
<ellipse cx="159.891" cy="14.2647" rx="4.8913" ry="4.26471" fill="#3F4659"/>
<line y1="-2.5" x2="25.5965" y2="-2.5" transform="matrix(0 -1 0.999981 0.00610868 162.5 38.5966)" stroke="#3F4659" stroke-width="5"/>
<path fill-rule="evenodd" clip-rule="evenodd" d="M107.585 46L108.656 77.3095L106.55 77.3801L105.479 46.0707L107.585 46Z" fill="#3F4659" stroke="#3F4659" stroke-linejoin="round"/>
<path fill-rule="evenodd" clip-rule="evenodd" d="M109 86.9999C109 86.9999 109 86.9999 109 86.9999V71.2307C109 71.2307 109 71.2307 109 71.2307C105.134 71.2307 102 74.7608 102 79.1153C102 83.4699 105.134 86.9999 109 86.9999Z" fill="#3F4659"/>
<path fill-rule="evenodd" clip-rule="evenodd" d="M191.529 46.0749L190.436 77.3836L188.33 77.3087L189.423 46L191.529 46.0749Z" fill="#3F4659" stroke="#3F4659" stroke-linejoin="round"/>
<path fill-rule="evenodd" clip-rule="evenodd" d="M188 70.9999C188 70.9999 188 70.9999 188 70.9999V86.7692C188 86.7692 188 86.7692 188 86.7692C191.866 86.7692 195 83.2391 195 78.8846C195 74.53 191.866 70.9999 188 70.9999Z" fill="#3F4659"/>
<circle cx="136" cy="66" r="6" fill="#3F4659"/>
<circle cx="159" cy="66" r="6" fill="#3F4659"/>
<path fill-rule="evenodd" clip-rule="evenodd" d="M343 38C329.193 38 318 49.1929 318 63V92C318 105.807 329.193 117 343 117H372C385.807 117 397 105.807 397 92V63C397 49.1929 385.807 38 372 38H343ZM342.217 52.0294C336.694 52.0294 332.217 56.5066 332.217 62.0294V91C332.217 96.5228 336.694 101 342.217 101H371.783C377.305 101 381.783 96.5228 381.783 91V62.0294C381.783 56.5066 377.305 52.0294 371.782 52.0294H342.217Z" fill="#6191BC"/>
<ellipse cx="343.891" cy="14.2647" rx="4.8913" ry="4.26471" fill="#3F4659"/>
<line y1="-2.5" x2="25.5965" y2="-2.5" transform="matrix(0 -1 0.999981 0.00610868 346.5 38.5966)" stroke="#3F4659" stroke-width="5"/>
<ellipse cx="368.891" cy="14.2647" rx="4.8913" ry="4.26471" fill="#3F4659"/>
<line y1="-2.5" x2="25.5965" y2="-2.5" transform="matrix(0 -1 0.999981 0.00610868 371.5 38.5966)" stroke="#3F4659" stroke-width="5"/>
<path fill-rule="evenodd" clip-rule="evenodd" d="M316.585 46L317.656 77.3095L315.55 77.3801L314.479 46.0707L316.585 46Z" fill="#3F4659" stroke="#3F4659" stroke-linejoin="round"/>
<path fill-rule="evenodd" clip-rule="evenodd" d="M318 86.9999C318 86.9999 318 86.9999 318 86.9999V71.2307C318 71.2307 318 71.2307 318 71.2307C314.134 71.2307 311 74.7608 311 79.1153C311 83.4699 314.134 86.9999 318 86.9999Z" fill="#3F4659"/>
<path fill-rule="evenodd" clip-rule="evenodd" d="M400.529 46.0749L399.436 77.3836L397.33 77.3087L398.423 46L400.529 46.0749Z" fill="#3F4659" stroke="#3F4659" stroke-linejoin="round"/>
<path fill-rule="evenodd" clip-rule="evenodd" d="M397 70.9999C397 70.9999 397 70.9999 397 70.9999V86.7692C397 86.7692 397 86.7692 397 86.7692C400.866 86.7692 404 83.2391 404 78.8846C404 74.53 400.866 70.9999 397 70.9999Z" fill="#3F4659"/>
<circle cx="345" cy="66" r="6" fill="#3F4659"/>
<circle cx="368" cy="66" r="6" fill="#3F4659"/>
</svg>
