<svg width="93" height="107" viewBox="0 0 93 107" fill="none" xmlns="http://www.w3.org/2000/svg">
<path fill-rule="evenodd" clip-rule="evenodd" d="M32 28C18.193 28 7 39.1929 7 53V82C7 95.807 18.193 107 32 107H61C74.807 107 86 95.807 86 82V53C86 39.1929 74.807 28 61 28H32ZM31.217 42.0294C25.694 42.0294 21.217 46.5066 21.217 52.0294V81C21.217 86.5228 25.694 91 31.217 91H60.783C66.305 91 70.783 86.5228 70.783 81V52.0294C70.783 46.5066 66.305 42.0294 60.782 42.0294H31.217Z" fill="#6191BC"/>
<path d="M32.891 8.52942C35.5924 8.52942 37.7823 6.62004 37.7823 4.26471C37.7823 1.90938 35.5924 0 32.891 0C30.1896 0 27.9997 1.90938 27.9997 4.26471C27.9997 6.62004 30.1896 8.52942 32.891 8.52942Z" fill="#3F4659"/>
<path d="M33.0001 28.5813V2.98484" stroke="#3F4659" stroke-width="5"/>
<path d="M57.891 8.52942C60.5924 8.52942 62.7823 6.62004 62.7823 4.26471C62.7823 1.90938 60.5924 0 57.891 0C55.1896 0 52.9997 1.90938 52.9997 4.26471C52.9997 6.62004 55.1896 8.52942 57.891 8.52942Z" fill="#3F4659"/>
<path d="M58.0001 28.5813V2.98484" stroke="#3F4659" stroke-width="5"/>
<path fill-rule="evenodd" clip-rule="evenodd" d="M5.58499 36L6.65601 67.3095L4.54999 67.3801L3.479 36.0707L5.58499 36Z" fill="#3F4659" stroke="#3F4659" stroke-linejoin="round"/>
<path fill-rule="evenodd" clip-rule="evenodd" d="M7 76.9999V61.2307C3.134 61.2307 0 64.7608 0 69.1153C0 73.4699 3.134 76.9999 7 76.9999Z" fill="#3F4659"/>
<path fill-rule="evenodd" clip-rule="evenodd" d="M89.529 36.0749L88.436 67.3836L86.33 67.3087L87.423 36L89.529 36.0749Z" fill="#3F4659" stroke="#3F4659" stroke-linejoin="round"/>
<path fill-rule="evenodd" clip-rule="evenodd" d="M86 60.9999V76.7692C89.866 76.7692 93 73.2391 93 68.8846C93 64.53 89.866 60.9999 86 60.9999Z" fill="#3F4659"/>
<path d="M34 62C37.3137 62 40 59.3137 40 56C40 52.6863 37.3137 50 34 50C30.6863 50 28 52.6863 28 56C28 59.3137 30.6863 62 34 62Z" fill="#3F4659"/>
<path d="M57 62C60.3137 62 63 59.3137 63 56C63 52.6863 60.3137 50 57 50C53.6863 50 51 52.6863 51 56C51 59.3137 53.6863 62 57 62Z" fill="#3F4659"/>
</svg>
